# xmcd
#
# Track frame offsets:
# 150
# 16171
# 31957
# 47371
# 64465
# 82047
# 96487
# 110151
# 128286
# 142122
# 155886
# 171055
# 185172
# 200785
# 217008
# 232445
# 253137
# 265363
#
# Disc length: 3768 seconds
#
# Revision: 1
# Processed by: cddbd v1.4PL0 Copyright (c) Steve Scherf et al.
# Submitted via: CedeCatalogueitor 2.5 http://usuarios.lycos.es/kakasboy
#
DISCID=1e0eb612
DTITLE=Luis Miguel - Mis Romances Favoritos
DYEAR=2002
DGENRE=
TTITLE0=No Me Pastiques Más
TTITLE1=La Barca
TTITLE2=La Gloria Eres Tú
TTITLE3=No Sé Tu
TTITLE4=Historia De Un Amor
TTITLE5=Somos Novios
TTITLE6=Solamente Una Vez
TTITLE7=El Día Que Me Quieras
TTITLE8=El Reloj
TTITLE9=Por Debajo De La Mesa
TTITLE10=Encadenados
TTITLE11=Saor A Mi
TTITLE12=Perfidia
TTITLE13=Hasta Que Vuelvas
TTITLE14=Contigo En La Distancia
TTITLE15=Delirio
TTITLE16=La Media Vuelta
TTITLE17=Amor, Amor, Amor
EXTD=
EXTT0=
EXTT1=
EXTT2=
EXTT3=
EXTT4=
EXTT5=
EXTT6=
EXTT7=
EXTT8=
EXTT9=
EXTT10=
EXTT11=
EXTT12=
EXTT13=
EXTT14=
EXTT15=
EXTT16=
EXTT17=
PLAYORDER=
